# xmcd
#
# Track frame offsets: 
#        150
#        11774
#        27084
#        37685
#        47718
#        59885
#        71407
#        84914
#        96563
#        108495
#        118573
#        130971
#        143009
#        156126
#        168715
#        181213
#
# Disc length: 2577 seconds
#
# Revision: 0
# Processed by: cddbd v1.5.2PL0 Copyright (c) Steve Scherf et al.
# Submitted via: ExactAudioCopy v0.95b4
#
DISCID=d70a0f10
DTITLE=Various Artist - Hillbilly Boogie Disk 3
DYEAR=2006
DGENRE=Boogie
TTITLE0=Tennessee Ernie Ford - The Shotgun Boogie
TTITLE1=Arthur Smith's Hot Quintet - Guitar Boogie
TTITLE2=Mustard and Gravy - Be-Bop Boogie
TTITLE3=Ann Jones - You've Got to See Mama Ev'ry Night (Or You Can't S
TTITLE3=ee Mama at All)
TTITLE4=Spade Cooley and His Orchestra - Yodeling Polka
TTITLE5=Zeke Clements and His Men from Music Mountain - Payday Saturday 
TTITLE5=Night
TTITLE6=Leon McAuliffe and His Western Swing - Blue Guitar Stomp
TTITLE7=Al Dexter and His Troopers - Diddy Wah Boogie
TTITLE8=Bob Wills and His Texas Playboys - Bob Wills Boogie
TTITLE9=Hardrock Gunter and The Rhythm Rockers - Dixieland Boogie
TTITLE10=Jerry Irby and His Texas Ranchers - 49 Women
TTITLE11=Zeb Turner - Boogie Woogie Lou
TTITLE12=Johnny Bond and His Red River Valley Boys - Mean Mama Boogie
TTITLE13=Merle Travis - Crazy Boogie
TTITLE14=The Delmore Brothers - Boogie Woogie Baby
TTITLE15=Johnny Barfield - Doin' the Boogie Woogie
EXTD=
EXTT0=
EXTT1=
EXTT2=
EXTT3=
EXTT4=
EXTT5=
EXTT6=
EXTT7=
EXTT8=
EXTT9=
EXTT10=
EXTT11=
EXTT12=
EXTT13=
EXTT14=
EXTT15=
PLAYORDER=
